<?xml version="1.0" encoding="UTF-8" standalone="no"?>
<!DOCTYPE svg PUBLIC "-//W3C//DTD SVG 1.1//EN"
 "http://www.w3.org/Graphics/SVG/1.1/DTD/svg11.dtd">
<!-- Generated by graphviz version 2.40.1 (20161225.0304)
 -->
<!-- Title: G Pages: 1 -->
<svg width="572pt" height="942pt"
 viewBox="0.00 0.00 571.85 942.00" xmlns="http://www.w3.org/2000/svg" xmlns:xlink="http://www.w3.org/1999/xlink">
<g id="graph0" class="graph" transform="scale(1 1) rotate(0) translate(4 938)">
<title>G</title>
<polygon fill="#ffffff" stroke="transparent" points="-4,4 -4,-938 567.8462,-938 567.8462,4 -4,4"/>
<g id="clust1" class="cluster">
<title>cluster_Global</title>
<path fill="none" stroke="#c0c0c0" d="M20,-8C20,-8 543.8462,-8 543.8462,-8 549.8462,-8 555.8462,-14 555.8462,-20 555.8462,-20 555.8462,-914 555.8462,-914 555.8462,-920 549.8462,-926 543.8462,-926 543.8462,-926 20,-926 20,-926 14,-926 8,-920 8,-914 8,-914 8,-20 8,-20 8,-14 14,-8 20,-8"/>
<text text-anchor="middle" x="281.9231" y="-913.2" font-family="Times,serif" font-size="11.00" fill="#c0c0c0">Global</text>
</g>
<g id="clust2" class="cluster">
<title>cluster_\Bulldog</title>
<path fill="none" stroke="#c0c0c0" d="M28,-16C28,-16 535.8462,-16 535.8462,-16 541.8462,-16 547.8462,-22 547.8462,-28 547.8462,-28 547.8462,-887 547.8462,-887 547.8462,-893 541.8462,-899 535.8462,-899 535.8462,-899 28,-899 28,-899 22,-899 16,-893 16,-887 16,-887 16,-28 16,-28 16,-22 22,-16 28,-16"/>
<text text-anchor="middle" x="281.9231" y="-886.2" font-family="Times,serif" font-size="11.00" fill="#c0c0c0">Bulldog</text>
</g>
<g id="clust3" class="cluster">
<title>cluster_\Bulldog\LaCrm</title>
<path fill="none" stroke="#c0c0c0" d="M36,-24C36,-24 527.8462,-24 527.8462,-24 533.8462,-24 539.8462,-30 539.8462,-36 539.8462,-36 539.8462,-860 539.8462,-860 539.8462,-866 533.8462,-872 527.8462,-872 527.8462,-872 36,-872 36,-872 30,-872 24,-866 24,-860 24,-860 24,-36 24,-36 24,-30 30,-24 36,-24"/>
<text text-anchor="middle" x="281.9231" y="-859.2" font-family="Times,serif" font-size="11.00" fill="#c0c0c0">LaCrm</text>
</g>
<g id="clust4" class="cluster">
<title>cluster_\Bulldog\LaCrm\Endpoints</title>
<path fill="none" stroke="#c0c0c0" d="M44,-184C44,-184 519.8462,-184 519.8462,-184 525.8462,-184 531.8462,-190 531.8462,-196 531.8462,-196 531.8462,-833 531.8462,-833 531.8462,-839 525.8462,-845 519.8462,-845 519.8462,-845 44,-845 44,-845 38,-845 32,-839 32,-833 32,-833 32,-196 32,-196 32,-190 38,-184 44,-184"/>
<text text-anchor="middle" x="281.9231" y="-832.2" font-family="Times,serif" font-size="11.00" fill="#c0c0c0">Endpoints</text>
</g>
<g id="clust5" class="cluster">
<title>cluster_\Bulldog\LaCrm\Endpoints\Contacts</title>
<path fill="none" stroke="#c0c0c0" d="M214.5134,-531C214.5134,-531 508.5457,-531 508.5457,-531 514.5457,-531 520.5457,-537 520.5457,-543 520.5457,-543 520.5457,-806 520.5457,-806 520.5457,-812 514.5457,-818 508.5457,-818 508.5457,-818 214.5134,-818 214.5134,-818 208.5134,-818 202.5134,-812 202.5134,-806 202.5134,-806 202.5134,-543 202.5134,-543 202.5134,-537 208.5134,-531 214.5134,-531"/>
<text text-anchor="middle" x="361.5295" y="-805.2" font-family="Times,serif" font-size="11.00" fill="#c0c0c0">Contacts</text>
</g>
<g id="clust6" class="cluster">
<title>cluster_\Bulldog\LaCrm\Endpoints\Pipelines</title>
<path fill="none" stroke="#c0c0c0" d="M214.5134,-344C214.5134,-344 511.8462,-344 511.8462,-344 517.8462,-344 523.8462,-350 523.8462,-356 523.8462,-356 523.8462,-511 523.8462,-511 523.8462,-517 517.8462,-523 511.8462,-523 511.8462,-523 214.5134,-523 214.5134,-523 208.5134,-523 202.5134,-517 202.5134,-511 202.5134,-511 202.5134,-356 202.5134,-356 202.5134,-350 208.5134,-344 214.5134,-344"/>
<text text-anchor="middle" x="363.1798" y="-510.2" font-family="Times,serif" font-size="11.00" fill="#c0c0c0">Pipelines</text>
</g>
<!-- \\Bulldog\\LaCrm\\Endpoints\\Contacts\\AddContactToGroup -->
<g id="node1" class="node">
<title>\\Bulldog\\LaCrm\\Endpoints\\Contacts\\AddContactToGroup</title>
<polygon fill="none" stroke="#000000" points="512.655,-737 384.2181,-737 384.2181,-701 512.655,-701 512.655,-737"/>
<text text-anchor="middle" x="448.4365" y="-715.7" font-family="Courier,monospace" font-size="11.00" fill="#000000">AddContactToGroup</text>
</g>
<!-- \\Bulldog\\LaCrm\\Endpoints\\Endpoint -->
<g id="node14" class="node">
<title>\\Bulldog\\LaCrm\\Endpoints\\Endpoint</title>
<polygon fill="none" stroke="#000000" points="122.0161,-464 39.9946,-464 39.9946,-428 122.0161,-428 122.0161,-464"/>
<text text-anchor="start" x="48" y="-448.2" font-family="Courier,monospace" font-size="11.00" fill="#000000">«abstract»</text>
<text text-anchor="start" x="54.6011" y="-437.2" font-family="Courier,monospace" font-size="11.00" fill="#000000">Endpoint</text>
</g>
<!-- \\Bulldog\\LaCrm\\Endpoints\\Contacts\\AddContactToGroup&#45;&gt;\\Bulldog\\LaCrm\\Endpoints\\Endpoint -->
<g id="edge2" class="edge">
<title>\\Bulldog\\LaCrm\\Endpoints\\Contacts\\AddContactToGroup&#45;&gt;\\Bulldog\\LaCrm\\Endpoints\\Endpoint</title>
<path fill="none" stroke="#000000" d="M251.5188,-746C147.9918,-685.7615 102.168,-536.6305 87.062,-474.1977"/>
<polygon fill="none" stroke="#000000" points="90.4254,-473.2091 84.7435,-464.2667 83.6087,-474.8006 90.4254,-473.2091"/>
<path fill="none" stroke="#000000" d="M384.1566,-736.3361C335.5357,-747.8857 273.5151,-758.7988 251.5188,-746"/>
</g>
<!-- \\Bulldog\\LaCrm\\Endpoints\\Contacts\\EditContact -->
<g id="node2" class="node">
<title>\\Bulldog\\LaCrm\\Endpoints\\Contacts\\EditContact</title>
<polygon fill="none" stroke="#000000" points="492.5492,-683 404.3239,-683 404.3239,-647 492.5492,-647 492.5492,-683"/>
<text text-anchor="middle" x="448.4365" y="-661.7" font-family="Courier,monospace" font-size="11.00" fill="#000000">EditContact</text>
</g>
<!-- \\Bulldog\\LaCrm\\Endpoints\\Contacts\\Contact -->
<g id="node4" class="node">
<title>\\Bulldog\\LaCrm\\Endpoints\\Contacts\\Contact</title>
<polygon fill="none" stroke="#000000" points="292.5295,-629 210.5081,-629 210.5081,-593 292.5295,-593 292.5295,-629"/>
<text text-anchor="start" x="218.5134" y="-613.2" font-family="Courier,monospace" font-size="11.00" fill="#000000">«abstract»</text>
<text text-anchor="start" x="228.415" y="-602.2" font-family="Courier,monospace" font-size="11.00" fill="#000000">Contact</text>
</g>
<!-- \\Bulldog\\LaCrm\\Endpoints\\Contacts\\EditContact&#45;&gt;\\Bulldog\\LaCrm\\Endpoints\\Contacts\\Contact -->
<g id="edge3" class="edge">
<title>\\Bulldog\\LaCrm\\Endpoints\\Contacts\\EditContact&#45;&gt;\\Bulldog\\LaCrm\\Endpoints\\Contacts\\Contact</title>
<path fill="none" stroke="#000000" d="M404.2443,-652.8813C374.0597,-644.6039 333.9795,-633.6129 302.4521,-624.9672"/>
<polygon fill="none" stroke="#000000" points="303.1095,-621.5184 292.5399,-622.2491 301.2582,-628.2691 303.1095,-621.5184"/>
</g>
<!-- \\Bulldog\\LaCrm\\Endpoints\\Contacts\\CreateContact -->
<g id="node3" class="node">
<title>\\Bulldog\\LaCrm\\Endpoints\\Contacts\\CreateContact</title>
<polygon fill="none" stroke="#000000" points="499.2507,-629 397.6224,-629 397.6224,-593 499.2507,-593 499.2507,-629"/>
<text text-anchor="middle" x="448.4365" y="-607.7" font-family="Courier,monospace" font-size="11.00" fill="#000000">CreateContact</text>
</g>
<!-- \\Bulldog\\LaCrm\\Endpoints\\Contacts\\CreateContact&#45;&gt;\\Bulldog\\LaCrm\\Endpoints\\Contacts\\Contact -->
<g id="edge4" class="edge">
<title>\\Bulldog\\LaCrm\\Endpoints\\Contacts\\CreateContact&#45;&gt;\\Bulldog\\LaCrm\\Endpoints\\Contacts\\Contact</title>
<path fill="none" stroke="#000000" d="M397.4692,-611C368.4423,-611 332.1737,-611 303.0532,-611"/>
<polygon fill="none" stroke="#000000" points="302.6747,-607.5001 292.6746,-611 302.6746,-614.5001 302.6747,-607.5001"/>
</g>
<!-- \\Bulldog\\LaCrm\\Endpoints\\Contacts\\Contact&#45;&gt;\\Bulldog\\LaCrm\\Endpoints\\Endpoint -->
<g id="edge5" class="edge">
<title>\\Bulldog\\LaCrm\\Endpoints\\Contacts\\Contact&#45;&gt;\\Bulldog\\LaCrm\\Endpoints\\Endpoint</title>
<path fill="none" stroke="#000000" d="M210.285,-594.4234C204.5725,-591.3452 198.9704,-587.8635 194.0107,-584 153.2756,-552.2676 117.6617,-503.3236 97.7805,-473.0535"/>
<polygon fill="none" stroke="#000000" points="100.4922,-470.8008 92.1273,-464.2986 94.6116,-474.598 100.4922,-470.8008"/>
</g>
<!-- \\Bulldog\\LaCrm\\Endpoints\\Contacts\\DeleteContact -->
<g id="node5" class="node">
<title>\\Bulldog\\LaCrm\\Endpoints\\Contacts\\DeleteContact</title>
<polygon fill="none" stroke="#000000" points="499.2507,-575 397.6224,-575 397.6224,-539 499.2507,-539 499.2507,-575"/>
<text text-anchor="middle" x="448.4365" y="-553.7" font-family="Courier,monospace" font-size="11.00" fill="#000000">DeleteContact</text>
</g>
<!-- \\Bulldog\\LaCrm\\Endpoints\\Contacts\\GetContact -->
<g id="node7" class="node">
<title>\\Bulldog\\LaCrm\\Endpoints\\Contacts\\GetContact</title>
<polygon fill="none" stroke="#000000" points="292.5295,-575 210.5081,-575 210.5081,-539 292.5295,-539 292.5295,-575"/>
<text text-anchor="middle" x="251.5188" y="-553.7" font-family="Courier,monospace" font-size="11.00" fill="#000000">GetContact</text>
</g>
<!-- \\Bulldog\\LaCrm\\Endpoints\\Contacts\\DeleteContact&#45;&gt;\\Bulldog\\LaCrm\\Endpoints\\Contacts\\GetContact -->
<g id="edge6" class="edge">
<title>\\Bulldog\\LaCrm\\Endpoints\\Contacts\\DeleteContact&#45;&gt;\\Bulldog\\LaCrm\\Endpoints\\Contacts\\GetContact</title>
<path fill="none" stroke="#000000" d="M397.4692,-557C368.4423,-557 332.1737,-557 303.0532,-557"/>
<polygon fill="none" stroke="#000000" points="302.6747,-553.5001 292.6746,-557 302.6746,-560.5001 302.6747,-553.5001"/>
</g>
<!-- \\Bulldog\\LaCrm\\Endpoints\\Contacts\\SearchContacts -->
<g id="node6" class="node">
<title>\\Bulldog\\LaCrm\\Endpoints\\Contacts\\SearchContacts</title>
<polygon fill="none" stroke="#000000" points="502.8524,-791 394.0207,-791 394.0207,-755 502.8524,-755 502.8524,-791"/>
<text text-anchor="middle" x="448.4365" y="-769.7" font-family="Courier,monospace" font-size="11.00" fill="#000000">SearchContacts</text>
</g>
<!-- \\Bulldog\\LaCrm\\Endpoints\\Contacts\\SearchContacts&#45;&gt;\\Bulldog\\LaCrm\\Endpoints\\Endpoint -->
<g id="edge7" class="edge">
<title>\\Bulldog\\LaCrm\\Endpoints\\Contacts\\SearchContacts&#45;&gt;\\Bulldog\\LaCrm\\Endpoints\\Endpoint</title>
<path fill="none" stroke="#000000" d="M393.8689,-776.3663C352.1964,-776.4837 294.7657,-771.1638 251.5188,-746"/>
</g>
<!-- \\Bulldog\\LaCrm\\Endpoints\\Contacts\\GetContact&#45;&gt;\\Bulldog\\LaCrm\\Endpoints\\Endpoint -->
<g id="edge8" class="edge">
<title>\\Bulldog\\LaCrm\\Endpoints\\Contacts\\GetContact&#45;&gt;\\Bulldog\\LaCrm\\Endpoints\\Endpoint</title>
<path fill="none" stroke="#000000" d="M214.8868,-538.879C207.8579,-535.1259 200.6293,-531.0703 194.0107,-527 165.3864,-509.3965 134.4756,-486.9849 112.2301,-470.2005"/>
<polygon fill="none" stroke="#000000" points="114.232,-467.3259 104.1514,-464.065 109.9982,-472.9004 114.232,-467.3259"/>
</g>
<!-- \\Bulldog\\LaCrm\\Endpoints\\Pipelines\\UpdatePipelineItem -->
<g id="node8" class="node">
<title>\\Bulldog\\LaCrm\\Endpoints\\Pipelines\\UpdatePipelineItem</title>
<polygon fill="none" stroke="#000000" points="515.756,-442 381.1171,-442 381.1171,-406 515.756,-406 515.756,-442"/>
<text text-anchor="middle" x="448.4365" y="-420.7" font-family="Courier,monospace" font-size="11.00" fill="#000000">UpdatePipelineItem</text>
</g>
<!-- \\Bulldog\\LaCrm\\Endpoints\\Pipelines\\Pipeline -->
<g id="node9" class="node">
<title>\\Bulldog\\LaCrm\\Endpoints\\Pipelines\\Pipeline</title>
<polygon fill="none" stroke="#000000" points="292.5295,-442 210.5081,-442 210.5081,-406 292.5295,-406 292.5295,-442"/>
<text text-anchor="start" x="218.5134" y="-426.2" font-family="Courier,monospace" font-size="11.00" fill="#000000">«abstract»</text>
<text text-anchor="start" x="225.1145" y="-415.2" font-family="Courier,monospace" font-size="11.00" fill="#000000">Pipeline</text>
</g>
<!-- \\Bulldog\\LaCrm\\Endpoints\\Pipelines\\UpdatePipelineItem&#45;&gt;\\Bulldog\\LaCrm\\Endpoints\\Pipelines\\Pipeline -->
<g id="edge9" class="edge">
<title>\\Bulldog\\LaCrm\\Endpoints\\Pipelines\\UpdatePipelineItem&#45;&gt;\\Bulldog\\LaCrm\\Endpoints\\Pipelines\\Pipeline</title>
<path fill="none" stroke="#000000" d="M380.9441,-424C355.4374,-424 326.8438,-424 303.0327,-424"/>
<polygon fill="none" stroke="#000000" points="302.8016,-420.5001 292.8015,-424 302.8015,-427.5001 302.8016,-420.5001"/>
</g>
<!-- \\Bulldog\\LaCrm\\Endpoints\\Pipelines\\Pipeline&#45;&gt;\\Bulldog\\LaCrm\\Endpoints\\Endpoint -->
<g id="edge10" class="edge">
<title>\\Bulldog\\LaCrm\\Endpoints\\Pipelines\\Pipeline&#45;&gt;\\Bulldog\\LaCrm\\Endpoints\\Endpoint</title>
<path fill="none" stroke="#000000" d="M210.2423,-429.3256C186.7663,-432.3545 157.1639,-436.1739 132.2157,-439.3927"/>
<polygon fill="none" stroke="#000000" points="131.6669,-435.9344 122.197,-440.6854 132.5627,-442.8769 131.6669,-435.9344"/>
</g>
<!-- \\Bulldog\\LaCrm\\Endpoints\\Pipelines\\GetPipelineReport -->
<g id="node10" class="node">
<title>\\Bulldog\\LaCrm\\Endpoints\\Pipelines\\GetPipelineReport</title>
<polygon fill="none" stroke="#000000" points="512.655,-496 384.2181,-496 384.2181,-460 512.655,-460 512.655,-496"/>
<text text-anchor="middle" x="448.4365" y="-474.7" font-family="Courier,monospace" font-size="11.00" fill="#000000">GetPipelineReport</text>
</g>
<!-- \\Bulldog\\LaCrm\\Endpoints\\Pipelines\\GetPipelineReport&#45;&gt;\\Bulldog\\LaCrm\\Endpoints\\Endpoint -->
<g id="edge11" class="edge">
<title>\\Bulldog\\LaCrm\\Endpoints\\Pipelines\\GetPipelineReport&#45;&gt;\\Bulldog\\LaCrm\\Endpoints\\Endpoint</title>
<path fill="none" stroke="#000000" d="M384.0144,-472.3894C312.4135,-466.1536 198.2208,-456.2084 132.3728,-450.4736"/>
<polygon fill="none" stroke="#000000" points="132.4996,-446.9715 122.2336,-449.5906 131.8922,-453.9451 132.4996,-446.9715"/>
</g>
<!-- \\Bulldog\\LaCrm\\Endpoints\\Pipelines\\CreatePipeline -->
<g id="node11" class="node">
<title>\\Bulldog\\LaCrm\\Endpoints\\Pipelines\\CreatePipeline</title>
<polygon fill="none" stroke="#000000" points="502.8524,-388 394.0207,-388 394.0207,-352 502.8524,-352 502.8524,-388"/>
<text text-anchor="middle" x="448.4365" y="-366.7" font-family="Courier,monospace" font-size="11.00" fill="#000000">CreatePipeline</text>
</g>
<!-- \\Bulldog\\LaCrm\\Endpoints\\Pipelines\\CreatePipeline&#45;&gt;\\Bulldog\\LaCrm\\Endpoints\\Pipelines\\Pipeline -->
<g id="edge12" class="edge">
<title>\\Bulldog\\LaCrm\\Endpoints\\Pipelines\\CreatePipeline&#45;&gt;\\Bulldog\\LaCrm\\Endpoints\\Pipelines\\Pipeline</title>
<path fill="none" stroke="#000000" d="M394.1066,-384.8987C365.3894,-392.7737 330.3572,-402.3804 302.2037,-410.1009"/>
<polygon fill="none" stroke="#000000" points="301.2722,-406.727 292.5539,-412.7471 303.1235,-413.4778 301.2722,-406.727"/>
</g>
<!-- \\Bulldog\\LaCrm\\Endpoints\\CreateEvent -->
<g id="node12" class="node">
<title>\\Bulldog\\LaCrm\\Endpoints\\CreateEvent</title>
<polygon fill="none" stroke="#000000" points="295.6315,-336 207.4061,-336 207.4061,-300 295.6315,-300 295.6315,-336"/>
<text text-anchor="middle" x="251.5188" y="-314.7" font-family="Courier,monospace" font-size="11.00" fill="#000000">CreateEvent</text>
</g>
<!-- \\Bulldog\\LaCrm\\Endpoints\\CreateEvent&#45;&gt;\\Bulldog\\LaCrm\\Endpoints\\Endpoint -->
<g id="edge1" class="edge">
<title>\\Bulldog\\LaCrm\\Endpoints\\CreateEvent&#45;&gt;\\Bulldog\\LaCrm\\Endpoints\\Endpoint</title>
<path fill="none" stroke="#000000" d="M207.3274,-332.8564C202.7052,-335.0085 198.1785,-337.3905 194.0107,-340 158.3694,-362.3155 124.1174,-396.9044 102.8487,-420.4555"/>
<polygon fill="none" stroke="#000000" points="100.1816,-418.1876 96.1503,-427.9855 105.4118,-422.8402 100.1816,-418.1876"/>
</g>
<!-- \\Bulldog\\LaCrm\\Endpoints\\CreateTask -->
<g id="node13" class="node">
<title>\\Bulldog\\LaCrm\\Endpoints\\CreateTask</title>
<polygon fill="none" stroke="#000000" points="292.5295,-282 210.5081,-282 210.5081,-246 292.5295,-246 292.5295,-282"/>
<text text-anchor="middle" x="251.5188" y="-260.7" font-family="Courier,monospace" font-size="11.00" fill="#000000">CreateTask</text>
</g>
<!-- \\Bulldog\\LaCrm\\Endpoints\\CreateTask&#45;&gt;\\Bulldog\\LaCrm\\Endpoints\\Endpoint -->
<g id="edge13" class="edge">
<title>\\Bulldog\\LaCrm\\Endpoints\\CreateTask&#45;&gt;\\Bulldog\\LaCrm\\Endpoints\\Endpoint</title>
<path fill="none" stroke="#000000" d="M210.384,-280.1634C204.5954,-283.3159 198.945,-286.9285 194.0107,-291 149.6352,-327.6165 113.6891,-385.4002 95.0042,-419.1071"/>
<polygon fill="none" stroke="#000000" points="91.9042,-417.4814 90.1991,-427.9381 98.053,-420.827 91.9042,-417.4814"/>
</g>
<!-- \\Bulldog\\LaCrm\\Endpoints\\CreateNote -->
<g id="node15" class="node">
<title>\\Bulldog\\LaCrm\\Endpoints\\CreateNote</title>
<polygon fill="none" stroke="#000000" points="292.5295,-228 210.5081,-228 210.5081,-192 292.5295,-192 292.5295,-228"/>
<text text-anchor="middle" x="251.5188" y="-206.7" font-family="Courier,monospace" font-size="11.00" fill="#000000">CreateNote</text>
</g>
<!-- \\Bulldog\\LaCrm\\Endpoints\\CreateNote&#45;&gt;\\Bulldog\\LaCrm\\Endpoints\\Endpoint -->
<g id="edge14" class="edge">
<title>\\Bulldog\\LaCrm\\Endpoints\\CreateNote&#45;&gt;\\Bulldog\\LaCrm\\Endpoints\\Endpoint</title>
<path fill="none" stroke="#000000" d="M210.4661,-225.2533C204.5355,-228.5574 198.821,-232.4551 194.0107,-237 138.7732,-289.1901 104.514,-374.5033 89.6463,-418.2365"/>
<polygon fill="none" stroke="#000000" points="86.2626,-417.3211 86.4436,-427.9144 92.9082,-419.5203 86.2626,-417.3211"/>
</g>
<!-- \\Bulldog\\LaCrm\\GuzzleAdapter -->
<g id="node16" class="node">
<title>\\Bulldog\\LaCrm\\GuzzleAdapter</title>
<polygon fill="none" stroke="#000000" points="499.2507,-176 397.6224,-176 397.6224,-140 499.2507,-140 499.2507,-176"/>
<text text-anchor="middle" x="448.4365" y="-154.7" font-family="Courier,monospace" font-size="11.00" fill="#000000">GuzzleAdapter</text>
</g>
<!-- \\Bulldog\\LaCrm\\ClientInterface -->
<g id="node19" class="node">
<title>\\Bulldog\\LaCrm\\ClientInterface</title>
<polygon fill="none" stroke="#000000" points="309.0349,-174 194.0027,-174 194.0027,-138 309.0349,-138 309.0349,-174"/>
<text text-anchor="middle" x="251.5188" y="-152.7" font-family="Courier,monospace" font-size="11.00" fill="#000000">ClientInterface</text>
</g>
<!-- \\Bulldog\\LaCrm\\GuzzleAdapter&#45;&gt;\\Bulldog\\LaCrm\\ClientInterface -->
<g id="edge15" class="edge">
<title>\\Bulldog\\LaCrm\\GuzzleAdapter&#45;&gt;\\Bulldog\\LaCrm\\ClientInterface</title>
<path fill="none" stroke="#000000" stroke-dasharray="1,5" d="M397.4692,-157.4823C373.6264,-157.2402 344.8977,-156.9484 319.2578,-156.688"/>
<polygon fill="none" stroke="#000000" points="319.2642,-153.188 309.2291,-156.5861 319.193,-160.1876 319.2642,-153.188"/>
</g>
<!-- \\Bulldog\\LaCrm\\SimpleClient -->
<g id="node17" class="node">
<title>\\Bulldog\\LaCrm\\SimpleClient</title>
<polygon fill="none" stroke="#000000" points="496.1497,-122 400.7234,-122 400.7234,-86 496.1497,-86 496.1497,-122"/>
<text text-anchor="middle" x="448.4365" y="-100.7" font-family="Courier,monospace" font-size="11.00" fill="#000000">SimpleClient</text>
</g>
<!-- \\Bulldog\\LaCrm\\Client -->
<g id="node18" class="node">
<title>\\Bulldog\\LaCrm\\Client</title>
<polygon fill="none" stroke="#000000" points="476.0444,-68 420.8287,-68 420.8287,-32 476.0444,-32 476.0444,-68"/>
<text text-anchor="middle" x="448.4365" y="-46.7" font-family="Courier,monospace" font-size="11.00" fill="#000000">Client</text>
</g>
</g>
</svg>
